HIERARCHY
ROOT Hips
{
  OFFSET 0.0000 0.0000 0.0000
  CHANNELS 6 Xposition Yposition Zposition Zrotation Xrotation Yrotation
  JOINT LeftHip
  {
    OFFSET 3.4300 -0.0000 -0.0000
    CHANNELS 3 Zrotation Xrotation Yrotation
    JOINT LeftKnee
    {
      OFFSET 0.0000 -18.4700 -0.0000
      CHANNELS 3 Zrotation Xrotation Yrotation
      JOINT LeftAnkle
      {
        OFFSET 0.0000 -17.9500 0.0000
        CHANNELS 3 Zrotation Xrotation Yrotation
        End Site
        {
            OFFSET 0.0000 -3.1200 0.0000
        }
      }
    }
  }
  JOINT RightHip
  {
    OFFSET -3.4300 -0.0000 0.0000
    CHANNELS 3 Zrotation Xrotation Yrotation
    JOINT RightKnee
    {
      OFFSET -0.0000 -18.4700 0.0000
      CHANNELS 3 Zrotation Xrotation Yrotation
      JOINT RightAnkle
      {
        OFFSET 0.0000 -17.9500 0.0000
        CHANNELS 3 Zrotation Xrotation Yrotation
        End Site
        {
            OFFSET 0.0000 -3.1200 0.0000
        }
      }
    }
  }
  JOINT Chest
  {
    OFFSET 0.0000 4.5700 0.0000
    CHANNELS 3 Zrotation Xrotation Yrotation
    JOINT Chest2
    {
      OFFSET 0.0000 6.5700 0.0000
      CHANNELS 3 Zrotation Xrotation Yrotation
      JOINT LeftCollar
      {
        OFFSET 1.0600 4.1900 1.7600
        CHANNELS 3 Zrotation Xrotation Yrotation
        JOINT LeftShoulder
        {
          OFFSET 5.8100 0.0000 0.0000
          CHANNELS 3 Zrotation Xrotation Yrotation
          JOINT LeftElbow
          {
            OFFSET 0.0000 -12.0800 -0.0000
            CHANNELS 3 Zrotation Xrotation Yrotation
            JOINT LeftWrist
            {
              OFFSET -0.0000 -9.8200 0.0000
              CHANNELS 3 Zrotation Xrotation Yrotation
              End Site
              {
                  OFFSET 0.0000 -7.3700 0.0000
              }
            }
          }
        }
      }
      JOINT RightCollar
      {
        OFFSET -1.0600 4.1900 1.7600
        CHANNELS 3 Zrotation Xrotation Yrotation
        JOINT RightShoulder
        {
          OFFSET -6.0600 0.0000 0.0000
          CHANNELS 3 Zrotation Xrotation Yrotation
          JOINT RightElbow
          {
            OFFSET 0.0000 -11.0800 0.0000
            CHANNELS 3 Zrotation Xrotation Yrotation
            JOINT RightWrist
            {
              OFFSET 0.0000 -9.8200 0.0000
              CHANNELS 3 Zrotation Xrotation Yrotation
              End Site
              {
                  OFFSET 0.0000 -7.1400 0.0000
              }
            }
          }
        }
      }
    }
    JOINT Neck
    {
      OFFSET 0.0000 10.6200 0.0000
      CHANNELS 3 Zrotation Xrotation Yrotation
      JOINT Head
      {
        OFFSET -0.0000 5.1900 0.0000
        CHANNELS 3 Zrotation Xrotation Yrotation
        End Site
        {
            OFFSET 0.0000 4.1400 -0.0000
        }
      }
    }
  }
}
MOTION
Frames:	22
Frame Time:	0.033333
46.3858 41.8416 -1.7662 3.68 2.24 -33.50 6.21 -7.22 4.16 -0.03 2.07 6.05 -9.13 1.80 0.27 -9.47 -7.52 -5.47 -0.27 -3.07 -32.80 -2.56 9.19 0.51 10.81 23.15 -6.46 0.00 0.00 0.00 5.44 -0.12 6.78 -4.97 -45.29 -59.27 -112.25 -73.67 -124.46 14.30 -5.41 0.90 7.95 0.23 -1.99 -23.07 -26.25 -11.56 -3.93 -76.11 43.72 2.00 2.22 -0.01 -2.45 -2.92 2.50 4.51 -21.39 1.67 
46.3835 41.8420 -1.7570 3.61 2.19 -33.48 6.22 -7.15 4.15 -0.01 2.11 6.02 -9.12 1.75 0.27 -9.45 -7.45 -5.49 -0.26 -3.00 -32.79 -2.52 9.12 0.50 10.68 23.07 -6.41 0.00 0.00 0.00 5.75 -0.12 6.98 -5.47 -45.24 -59.75 -112.02 -73.65 -124.26 14.56 -5.45 0.92 7.77 0.22 -2.04 -22.78 -26.19 -11.52 -3.90 -76.10 43.68 1.87 2.14 -0.01 -2.12 -2.88 2.41 4.25 -21.40 1.68 
46.3742 41.8434 -1.7486 3.52 2.14 -33.47 6.27 -7.05 4.15 0.00 2.17 6.01 -9.15 1.69 0.27 -9.40 -7.34 -5.49 -0.26 -2.97 -32.78 -2.49 9.08 0.50 10.61 23.03 -6.37 0.00 0.00 0.00 5.76 -0.12 7.00 -5.54 -45.27 -59.98 -111.87 -73.66 -124.09 14.71 -5.48 0.93 7.72 0.22 -2.04 -22.67 -26.24 -11.53 -3.82 -75.92 43.79 1.71 2.06 -0.00 -2.10 -2.82 2.36 4.25 -21.44 1.64 
46.3768 41.8442 -1.7502 3.44 2.09 -33.42 6.29 -7.02 4.11 0.04 2.23 5.99 -9.15 1.66 0.28 -9.37 -7.29 -5.53 -0.24 -2.92 -32.78 -2.47 9.05 0.50 10.57 22.99 -6.39 0.00 0.00 0.00 5.45 -0.12 6.79 -5.03 -45.26 -59.75 -112.38 -73.64 -124.63 14.65 -5.40 0.92 7.72 0.22 -2.04 -22.61 -26.21 -11.53 -3.79 -75.98 43.85 1.70 2.10 -0.01 -2.12 -2.88 2.32 4.26 -21.35 1.59 
46.3752 41.8447 -1.7455 3.37 2.05 -33.40 6.32 -6.98 4.10 0.05 2.30 5.98 -9.16 1.61 0.27 -9.35 -7.21 -5.56 -0.22 -2.87 -32.76 -2.44 8.99 0.49 10.49 22.92 -6.35 0.00 0.00 0.00 5.39 -0.12 6.75 -4.92 -45.20 -59.86 -112.33 -73.68 -124.62 14.71 -5.40 0.92 7.86 0.23 -2.02 -22.78 -26.21 -11.63 -3.79 -76.00 43.84 1.72 2.15 -0.01 -2.03 -2.99 2.27 4.17 -21.20 1.56 
46.3749 41.8388 -1.7437 3.30 2.00 -33.38 6.35 -6.94 4.08 0.04 2.38 5.96 -9.15 1.57 0.27 -9.33 -7.16 -5.59 -0.21 -2.79 -32.75 -2.41 8.93 0.49 10.40 22.87 -6.31 0.00 0.00 0.00 5.34 -0.12 6.71 -4.82 -45.18 -59.87 -112.26 -73.75 -124.52 14.62 -5.45 0.92 7.90 0.23 -2.01 -22.78 -26.23 -11.68 -3.74 -75.97 43.88 1.70 2.20 -0.01 -2.19 -2.97 2.24 4.25 -21.19 1.48 
46.3700 41.8354 -1.7407 3.24 1.97 -33.36 6.39 -6.88 4.09 0.03 2.40 5.94 -9.16 1.54 0.27 -9.29 -7.11 -5.61 -0.22 -2.76 -32.74 -2.38 8.90 0.48 10.32 22.81 -6.30 0.00 0.00 0.00 5.27 -0.12 6.65 -4.58 -45.09 -59.75 -112.72 -73.72 -124.98 14.51 -5.40 0.91 7.86 0.23 -2.02 -22.63 -26.15 -11.66 -3.73 -75.97 43.87 1.67 2.19 -0.01 -2.36 -3.01 2.23 4.32 -21.12 1.42 
46.3603 41.8333 -1.7299 3.18 1.94 -33.37 6.43 -6.80 4.11 0.03 2.42 5.92 -9.17 1.50 0.27 -9.26 -7.05 -5.61 -0.21 -2.73 -32.73 -2.36 8.86 0.48 10.22 22.75 -6.25 0.00 0.00 0.00 5.42 -0.12 6.74 -4.82 -45.01 -60.07 -112.42 -73.75 -124.68 14.63 -5.42 0.92 7.86 0.23 -2.03 -22.62 -26.10 -11.65 -3.71 -75.90 43.80 1.66 2.18 -0.01 -2.26 -3.03 2.20 4.19 -21.07 1.42 
46.3473 41.8317 -1.7233 3.12 1.91 -33.37 6.48 -6.76 4.13 0.02 2.46 5.90 -9.17 1.46 0.26 -9.21 -6.98 -5.61 -0.22 -2.70 -32.70 -2.33 8.82 0.47 10.16 22.71 -6.22 0.00 0.00 0.00 5.44 -0.12 6.75 -4.85 -44.93 -60.17 -112.31 -73.77 -124.55 14.64 -5.48 0.93 7.87 0.23 -2.04 -22.60 -26.06 -11.63 -3.68 -75.80 43.78 1.61 2.15 -0.01 -2.36 -2.97 2.19 4.24 -21.12 1.38 
46.3347 41.8338 -1.7121 3.07 1.89 -33.37 6.51 -6.71 4.13 0.03 2.49 5.89 -9.18 1.43 0.26 -9.18 -6.92 -5.62 -0.20 -2.67 -32.69 -2.32 8.77 0.47 10.13 22.68 -6.22 0.00 0.00 0.00 5.39 -0.12 6.70 -4.68 -44.87 -60.05 -112.48 -73.77 -124.69 14.49 -5.52 0.92 7.87 0.22 -2.05 -22.50 -25.97 -11.60 -3.70 -75.78 43.80 1.57 2.10 -0.01 -2.42 -2.90 2.19 4.28 -21.17 1.37 
46.3228 41.8308 -1.7016 3.01 1.89 -33.37 6.55 -6.65 4.14 0.03 2.53 5.89 -9.19 1.38 0.26 -9.13 -6.87 -5.65 -0.19 -2.63 -32.66 -2.29 8.72 0.47 10.09 22.65 -6.18 0.00 0.00 0.00 5.38 -0.12 6.70 -4.67 -44.86 -60.13 -112.31 -73.80 -124.48 14.46 -5.58 0.93 7.87 0.22 -2.05 -22.44 -25.95 -11.63 -3.71 -75.73 43.83 1.55 2.07 -0.00 -2.32 -2.80 2.16 4.19 -21.26 1.37 
46.3154 41.8311 -1.6875 2.97 1.87 -33.36 6.55 -6.60 4.13 0.05 2.54 5.88 -9.19 1.36 0.26 -9.11 -6.85 -5.69 -0.17 -2.56 -32.62 -2.25 8.66 0.46 10.03 22.62 -6.18 0.00 0.00 0.00 5.59 -0.12 6.83 -4.91 -44.78 -60.28 -112.10 -73.83 -124.26 14.45 -5.69 0.94 7.72 0.22 -2.09 -22.19 -25.89 -11.58 -3.65 -75.70 43.86 1.46 2.04 -0.00 -2.27 -2.80 2.16 4.15 -21.26 1.38 
46.3013 41.8333 -1.6711 2.94 1.87 -33.37 6.57 -6.54 4.15 0.08 2.51 5.85 -9.21 1.34 0.27 -9.10 -6.81 -5.71 -0.14 -2.53 -32.60 -2.23 8.61 0.46 9.96 22.58 -6.17 0.00 0.00 0.00 5.78 -0.12 6.93 -5.12 -44.66 -60.39 -112.10 -73.83 -124.31 14.40 -5.72 0.94 7.66 0.21 -2.10 -21.97 -25.86 -11.56 -3.63 -75.72 43.91 1.41 2.04 -0.00 -2.16 -2.72 2.14 4.03 -21.36 1.40 
46.2809 41.8361 -1.6561 2.91 1.88 -33.39 6.61 -6.50 4.20 0.07 2.56 5.83 -9.21 1.26 0.26 -9.05 -6.77 -5.71 -0.14 -2.53 -32.57 -2.21 8.58 0.46 9.89 22.52 -6.13 0.00 0.00 0.00 5.92 -0.11 7.01 -5.30 -44.56 -60.51 -112.06 -73.85 -124.33 14.35 -5.70 0.93 7.74 0.22 -2.08 -21.87 -25.92 -11.64 -3.67 -75.61 43.96 1.39 1.97 -0.00 -2.09 -2.88 2.16 3.93 -21.26 1.44 
46.2669 41.8353 -1.6420 2.88 1.91 -33.39 6.68 -6.48 4.23 0.04 2.61 5.81 -9.22 1.19 0.25 -9.01 -6.76 -5.75 -0.14 -2.50 -32.53 -2.18 8.54 0.45 9.85 22.45 -6.16 0.00 0.00 0.00 6.00 -0.11 7.03 -5.27 -44.33 -60.43 -112.38 -73.85 -124.80 14.27 -5.69 0.93 7.85 0.22 -2.05 -21.65 -25.96 -11.66 -3.72 -75.49 44.10 1.33 1.85 -0.00 -2.40 -3.00 2.23 4.11 -21.23 1.42 
46.2438 41.8385 -1.6172 2.86 1.94 -33.41 6.71 -6.43 4.26 0.06 2.60 5.81 -9.24 1.14 0.25 -8.96 -6.73 -5.78 -0.14 -2.47 -32.48 -2.14 8.48 0.45 9.78 22.37 -6.16 0.00 0.00 0.00 6.18 -0.11 7.12 -5.37 -44.14 -60.43 -112.51 -73.83 -125.02 14.24 -5.70 0.93 7.75 0.22 -2.06 -21.18 -26.04 -11.63 -3.68 -75.31 44.27 1.19 1.77 -0.00 -2.51 -2.92 2.25 4.21 -21.33 1.41 
46.2161 41.8437 -1.5923 2.84 1.97 -33.44 6.78 -6.40 4.29 0.04 2.64 5.80 -9.24 1.06 0.24 -8.89 -6.69 -5.80 -0.17 -2.48 -32.42 -2.11 8.44 0.44 9.70 22.30 -6.15 0.00 0.00 0.00 6.44 -0.11 7.25 -5.58 -43.97 -60.49 -112.61 -73.82 -125.20 14.20 -5.72 0.93 7.54 0.21 -2.09 -20.69 -26.09 -11.54 -3.57 -75.25 44.28 1.14 1.82 -0.00 -2.52 -3.13 2.27 4.22 -21.16 1.42 
46.1941 41.8489 -1.5663 2.81 2.00 -33.44 6.83 -6.39 4.30 0.02 2.64 5.79 -9.24 1.03 0.24 -8.84 -6.67 -5.84 -0.17 -2.45 -32.37 -2.07 8.39 0.43 9.64 22.23 -6.15 0.00 0.00 0.00 6.62 -0.10 7.34 -5.61 -43.80 -60.26 -112.70 -73.81 -125.34 14.01 -5.84 0.93 7.62 0.22 -2.09 -20.51 -26.01 -11.41 -3.49 -75.37 44.24 1.12 1.94 -0.00 -2.55 -3.24 2.29 4.26 -21.07 1.43 
46.1671 41.8590 -1.5298 2.82 2.03 -33.43 6.84 -6.38 4.30 0.03 2.63 5.75 -9.23 0.99 0.23 -8.83 -6.62 -5.90 -0.15 -2.47 -32.34 -2.06 8.34 0.43 9.62 22.13 -6.17 0.00 0.00 0.00 6.43 -0.10 7.20 -5.13 -43.72 -59.72 -113.18 -73.76 -125.89 13.73 -5.82 0.91 7.83 0.22 -2.06 -20.56 -25.93 -11.32 -3.45 -75.35 44.26 1.06 1.97 -0.00 -2.65 -3.31 2.33 4.33 -20.98 1.43 
46.1359 41.8640 -1.4954 2.81 2.06 -33.41 6.89 -6.34 4.33 -0.01 2.62 5.70 -9.21 0.95 0.22 -8.78 -6.56 -5.95 -0.17 -2.50 -32.30 -2.03 8.30 0.43 9.61 22.04 -6.17 0.00 0.00 0.00 6.43 -0.10 7.19 -4.97 -43.70 -59.37 -113.63 -73.70 -126.36 13.51 -5.77 0.89 7.93 0.22 -2.06 -20.56 -25.84 -11.24 -3.46 -75.34 44.26 1.04 1.94 -0.00 -2.66 -3.48 2.35 4.32 -20.77 1.45 
46.1176 41.8707 -1.4626 2.79 2.10 -33.36 6.91 -6.29 4.31 0.01 2.56 5.66 -9.21 0.95 0.22 -8.77 -6.48 -6.03 -0.14 -2.54 -32.28 -2.02 8.27 0.43 9.60 21.96 -6.20 0.00 0.00 0.00 6.43 -0.10 7.18 -4.79 -43.71 -58.99 -114.09 -73.66 -126.77 13.25 -5.80 0.87 7.93 0.22 -2.07 -20.45 -25.79 -11.15 -3.49 -75.33 44.22 1.05 1.89 -0.00 -2.67 -3.49 2.36 4.33 -20.70 1.45 
46.0916 41.8729 -1.4202 2.80 2.13 -33.34 6.90 -6.18 4.32 0.03 2.41 5.63 -9.20 0.97 0.22 -8.75 -6.41 -6.06 -0.15 -2.58 -32.27 -1.99 8.24 0.43 9.58 21.89 -6.18 0.00 0.00 0.00 6.28 -0.11 7.10 -4.50 -43.78 -58.74 -114.37 -73.63 -127.06 13.17 -5.75 0.86 8.02 0.23 -2.05 -20.44 -25.76 -11.15 -3.52 -75.36 44.21 1.07 1.88 -0.00 -2.61 -3.33 2.33 4.26 -20.81 1.45 
